{"title":"Narrow.Margin.1990.iNTERNAL.DVDRip.XviD-EXViDiNT","uid":7011858,"size":736646797,"categoryP":"video","categoryS":"movies","magnet":"?xt=urn:btih:47171ee76caef7a032e9d37876d8a0b7529b6d42&amp;dn=Narrow.Margin.1990.iNTERNAL.DVDRip.XviD-EXViDiNT&amp;tr=udp%3A%2F%2Ftracker.openbittorrent.com%3A80&amp;tr=udp%3A%2F%2Fopen.demonii.com%3A1337&amp;tr=udp%3A%2F%2Ftracker.coppersurfer.tk%3A6969&amp;tr=udp%3A%2F%2Fexodus.desync.com%3A6969","seeders":3,"leechers":1,"uploader":"TvTeam","files":4,"time":1328496237,"description":". \n &lt;a href=&quot;\nhttp://www.torrenting.com&quot; rel=&quot;nofollow&quot; target=&quot;_NEW&quot;&gt;\nhttp://www.torrenting.com&lt;/a&gt;          :     Once &amp; For all ;)\n\n\n               www . Torrenting . Com \n\n(((((((((((((= Enjoy No RAR releases =))))))))))))))))))))\n\n\n...................................NFO:....................................\n\n.                                                                                                     \n       \n     \n     \n       \n       \n     \n     \n                                         \n                                         \n                EXVID                    \n                                         \n         \n                                         \n         Filled the Archives             \n                                         \n         \n                                         \n                With:                    \n                                         \n         \n                                         \n                                    \n     E240                           \n                                    \n     SP               (C) 2009      \n                                         \n     \n     \n     \n                                                                                  \n                                                                                   \n                  Narrow.Margin.1990.iNTERNAL.DVDRip.XviD-EXViDiNT                  \n                                                                                   \n                                                                                  \n     \n                                                                                               \nEXViD aims to iNTERNAL those releases which have been lost in the archives.\nEXViD aims to PRE non-internal releases which have poor sources and are likely skipped by others. &lt;a href=&quot;\nhttp://www.imdb.com/title/tt0100224/&quot; rel=&quot;nofollow&quot; target=&quot;_NEW&quot;&gt;\nhttp://www.imdb.com/title/tt0100224/&lt;/a&gt;\nSubtitles: None\nDate: 2012.01\n\nDirector: Peter Hyams\n\nGenres: Action | Crime | Thriller\n\nPlot:\nA woman secretly witnesses the murder of her blind date for the evening by a top Mafia boss. She\nimmediately goes into hiding without informing the authorities. When they finally catch up with\nher, she is unwilling to testify to what she has seen, but the Mafia are on her trail.\nAccompanied by a deputy district attorney, the woman boards a train travelling through a remote\npart of Canada. The Mafia know him but they have never seen her.\n\nCast:\nGene Hackman\t...\tCaulfield\nAnne Archer\t...\tHunnicut\nJames Sikking\t...\tNelson (as James B. Sikking)\nJ.T. Walsh\t...\tMichael Tarlow\nM. Emmet Walsh\t...\tSgt. Dominick Benti (as M. Emmett Walsh)\nSusan Hogan\t...\tKathryn Weller\nNigel Bennett\t...\tJack Wootton\nJ.A. Preston\t...\tMartin Larner\nB.A. 'Smitty' Smith\t...\tKeller\nCodie Lucas Wilbee\t...\tNicholas\nBarbara Russell\t...\tNicholas' Mother (as Barbara E. Russell)\nAntony Holland\t...\tElderly Man\nDoreen Ramos\t...\tElderly Woman\nKevin McNulty\t...\tJames Dahlbeck\nAndrew Rhodes\t...\tNigro\n\nStats:\nFormat                                   : AVI\nFormat/Info                              : Audio Video Interleave\nFile size                                : 703 MiB\nDuration                                 : 1h 36mn\nOverall bit rate mode                    : Variable\nOverall bit rate                         : 1 013 Kbps\n\nVideo\nID                                       : 0\nFormat                                   : MPEG-4 Visual\nFormat profile                           : Advanced Simple@L5\nFormat settings, BVOP                    : 2\nFormat settings, QPel                    : No\nFormat settings, GMC                     : No warppoints\nFormat settings, Matrix                  : Default (H.263)\nCodec ID                                 : XVID\nCodec ID/Hint                            : XviD\nDuration                                 : 1h 36mn\nBit rate                                 : 855 Kbps\nWidth                                    : 608 pixels\nHeight                                   : 272 pixels\nDisplay aspect ratio                     : 2.25:1\nFrame rate                               : 23.976 fps\nColor space                              : YUV\nChroma subsampling                       : 4:2:0\nBit depth                                : 8 bits\nScan type                                : Progressive\nCompression mode                         : Lossy\nBits/(Pixel*Frame)                       : 0.216\nStream size                              : 593 MiB (84%)\nWriting library                          : XviD 64\n\nAudio\nID                                       : 1\nFormat                                   : MPEG Audio\nFormat version                           : Version 1\nFormat profile                           : Layer 3\nMode                                     : Joint stereo\nMode extension                           : MS Stereo\nCodec ID                                 : 55\nCodec ID/Hint                            : MP3\nDuration                                 : 1h 36mn\nBit rate mode                            : Variable\nBit rate                                 : 146 Kbps\nChannel(s)                               : 2 channels\nSampling rate                            : 48.0 KHz\nCompression mode                         : Lossy\nStream size                              : 101 MiB (14%)\nAlignment                                : Aligned on interleaves\nInterleave, duration                     : 24 ms (0.58 video frame)\nInterleave, preload duration             : 427 ms\n\n\n\nRelease notes:\nEnjoy!\n\nLooking for:\n75TB+ Archives\nDUTCH/FLEMiSH Archives\n                                                                                                    \nGreets: CRBS EPiSODE FiCO FLS iLS KLASSiGER LiPSYNC MADE NODLABS RUNNER SPRiNTER      \n   \n\n                                                                    ASCII DONE BY XX^NFO 2oo9","torrent":{"xt":"urn:btih:47171ee76caef7a032e9d37876d8a0b7529b6d42","amp;dn":"Narrow.Margin.1990.iNTERNAL.DVDRip.XviD-EXViDiNT","amp;tr":["udp%3A%2F%2Ftracker.openbittorrent.com%3A80","udp%3A%2F%2Fopen.demonii.com%3A1337","udp%3A%2F%2Ftracker.coppersurfer.tk%3A6969","udp%3A%2F%2Fexodus.desync.com%3A6969"],"infoHash":"47171ee76caef7a032e9d37876d8a0b7529b6d42","infoHashBuffer":{"type":"Buffer","data":[71,23,30,231,108,174,247,160,50,233,211,120,118,216,160,183,82,155,109,66]},"announce":[],"urlList":[]}}